<svg xmlns="http://www.w3.org/2000/svg" width="210.035" height="44.998" viewBox="0 0 210.035 44.998">
  <g id="logo-header-float" transform="translate(191.518 41.031)">
    <g id="Group_11" data-name="Group 11" transform="translate(-191.518 -41.031)">
      <g id="Group_10" data-name="Group 10">
        <path id="Path_9" data-name="Path 9" d="M339.317,296.624c0-5.618-1.527-9.7-4.557-12.28-.115-.1-.23-.221-.35-.317a1.971,1.971,0,0,0-.188-.133q-3.781-2.849-10.376-2.855h-1.175v.033q-14.3.59-14.355,15.537v.083c0,5.618,1.525,9.7,4.547,12.285.12.1.234.217.359.321a2.234,2.234,0,0,1,.187.126q3.776,2.848,10.372,2.859h1.175v-.037q14.3-.582,14.355-15.528l.005-.009v-.083Zm-6.333.063v0c-.022,6.1-2.855,9.258-8.5,9.5v.025h-.658s-.009-.008-.016-.008-.009.008-.018.008a9.725,9.725,0,0,1-6.137-1.757.69.69,0,0,0-.116-.075c-.069-.062-.132-.129-.2-.192-1.795-1.578-2.7-4.074-2.7-7.517v-.055q.032-9.147,8.5-9.492V287.1h.692a9.741,9.741,0,0,1,6.145,1.744.9.9,0,0,1,.107.084c.073.058.137.126.214.2,1.782,1.569,2.689,4.074,2.689,7.509v.05Z" transform="translate(-264.916 -267.497)" fill="#fff"/>
        <path id="Path_10" data-name="Path 10" d="M397.229,303.183q0,9.349-13.471,9.35-7.7,0-11.09-3.348a8.968,8.968,0,0,1,0-12.009q3.392-3.344,11.09-3.348c3.048,0,5.073-.4,6.078-1.177a2.311,2.311,0,0,0,.871-2,2.376,2.376,0,0,0-.871-2.062c-1-.789-3.03-1.177-6.078-1.177-3,0-5.009.388-6.013,1.177a2.4,2.4,0,0,0-.876,2.062h-6.508a8.227,8.227,0,0,1,2.307-6.011q3.392-3.362,11.09-3.352,13.469,0,13.471,9.362h0Zm-6.522,0-.007-4.864c-1.412.927-4.2,1.353-6.916,1.353-3.008,0-4.868.2-6.013,1.177a3.142,3.142,0,0,0-.9,2.334,2.409,2.409,0,0,0,.876,2.054c1,.789,3.009,1.173,6.013,1.173,3.048,0,5.073-.384,6.078-1.173a2.386,2.386,0,0,0,.871-2.054" transform="translate(-292.939 -267.61)" fill="#fff"/>
        <path id="Path_11" data-name="Path 11" d="M282.96,292.221a3.51,3.51,0,0,1-1.475-3.081v-32.8h-7.85v32.805c-.014,3.877,1.29,6.95,4.093,8.97,2.8,2,6.945,2.943,12.564,2.951v-7.38C286.3,293.69,284.34,293.164,282.96,292.221Z" transform="translate(-249.253 -256.343)" fill="#fff"/>
        <path id="Path_12" data-name="Path 12" d="M442.706,278.653v-7.134h-9.419V256.7H425.68v32.8a10.266,10.266,0,0,0,4.428,9.025c2.945,2,6.988,2.956,12.6,2.956v-7.38c-4,.008-6.689-.556-8-1.461a3.636,3.636,0,0,1-1.415-3.139V278.657Z" transform="translate(-317.924 -256.505)" fill="#fff"/>
        <g id="Group_9" data-name="Group 9" transform="translate(0 0.071)">
          <path id="Path_13" data-name="Path 13" d="M229.169,300.966V268.457c-.008-3.932,1.476-7.013,4.428-9.02h0c2.945-2.009,7.125-2.96,12.731-2.964h.666v0h3.356v7.38h-4.459c-3.747.03-6.3.58-7.558,1.461h0a3.513,3.513,0,0,0-1.42,3.139h0v2.93h9.955v7.083l-9.955,0v22.5Zm20.741-37.735v0Z" transform="translate(-229.169 -256.473)" fill="#fff"/>
        </g>
      </g>
      <path id="Path_14" data-name="Path 14" d="M484,322.9h-2.816v-6.728a4.752,4.752,0,0,0-.727-2.968,3.755,3.755,0,0,0-3.128-1.144,3.861,3.861,0,0,0-3.163,1.144,4.779,4.779,0,0,0-.731,2.968V322.9h-2.816V304.142h2.816v6.169a7.95,7.95,0,0,1,3.894-.893q6.68,0,6.671,6.755Z" transform="translate(-338.22 -277.932)" fill="#00195a"/>
      <path id="Path_15" data-name="Path 15" d="M512.6,327.246h-6.68c-4.47,0-6.7-2.233-6.7-6.728s2.23-6.755,6.7-6.755q6.68,0,6.68,6.767v1.315H502.11c.286,1.836,1.56,2.763,3.812,2.763h6.68Zm-2.9-8.044c-.285-1.87-1.542-2.8-3.782-2.8s-3.525.927-3.812,2.8Z" transform="translate(-351.14 -282.277)" fill="#00195a"/>
      <path id="Path_16" data-name="Path 16" d="M540.045,323.214q0,4.032-5.808,4.032c-2.219,0-3.821-.472-4.786-1.444a3.84,3.84,0,0,1,0-5.18c.965-.965,2.567-1.444,4.786-1.444a4.631,4.631,0,0,0,2.62-.506,1.01,1.01,0,0,0,.38-.868,1.032,1.032,0,0,0-.38-.889,4.662,4.662,0,0,0-2.62-.509,4.6,4.6,0,0,0-2.6.509,1.041,1.041,0,0,0-.371.889h-2.817a3.537,3.537,0,0,1,1.005-2.593c.965-.968,2.567-1.448,4.786-1.448q5.809,0,5.808,4.041h0Zm-2.808,0v-1.774a9.872,9.872,0,0,1-3,.405,4.807,4.807,0,0,0-2.6.48,1.045,1.045,0,0,0-.371.889,1.033,1.033,0,0,0,.371.881,4.524,4.524,0,0,0,2.6.513,4.584,4.584,0,0,0,2.62-.513,1.025,1.025,0,0,0,.38-.881" transform="translate(-364.339 -282.277)" fill="#00195a"/>
      <path id="Path_17" data-name="Path 17" d="M561.716,322.9q-7.191,0-7.193-4.867V304.142h2.813v13.891a1.747,1.747,0,0,0,.761,1.545,6.811,6.811,0,0,0,3.618.684Z" transform="translate(-376.117 -277.932)" fill="#00195a"/>
      <path id="Path_18" data-name="Path 18" d="M577.91,322.93q-7.167,0-7.165-4.9V304.142h2.811v5.309h4.353V312.1h-4.353v5.931a1.82,1.82,0,0,0,.727,1.574,6.9,6.9,0,0,0,3.627.677Z" transform="translate(-383.444 -277.932)" fill="#00195a"/>
      <path id="Path_19" data-name="Path 19" d="M601.182,322.9h-2.816v-6.728a4.782,4.782,0,0,0-.726-2.968,3.759,3.759,0,0,0-3.132-1.144,3.838,3.838,0,0,0-3.161,1.144,4.765,4.765,0,0,0-.725,2.968V322.9H587.8V304.142h2.822v6.169a7.9,7.9,0,0,1,3.886-.893q6.677,0,6.674,6.755Z" transform="translate(-391.147 -277.932)" fill="#00195a"/>
    </g>
  </g>
</svg>
